<svg xmlns="http://www.w3.org/2000/svg" viewBox="0 0 157.03 157.03"><defs><style>.cls-1{fill:#eaeaea;}.cls-2{fill:#a0a0a0;}</style></defs><g id="Capa_2" data-name="Capa 2"><g id="platillos"><rect class="cls-1" width="157.03" height="157.03"/><circle class="cls-2" cx="78.45" cy="61.97" r="14.4"/><path class="cls-2" d="M90.84,62A12.4,12.4,0,1,1,80.65,49.75,12.5,12.5,0,0,1,90.84,62c0,2.57,4,2.57,4,0A16.4,16.4,0,1,0,81.71,78,16.61,16.61,0,0,0,94.84,62C94.88,59.39,90.88,59.39,90.84,62Z"/><path class="cls-2" d="M105.25,109.39c1.55,0,1.76-1.46,1.7-3C106.66,98.81,99.27,84,78.46,84,55.94,84,50.66,98.81,50,106.39c-.15,1.54.15,3,1.69,3Z"/><path class="cls-2" d="M105.25,111.39c6.58-.46,2.89-10.63,1.15-14A27.28,27.28,0,0,0,93.9,85.26c-7.35-3.49-16-4-23.89-2.52-6.21,1.18-12.2,4.16-16.22,9.14a26.53,26.53,0,0,0-5.57,12.49c-.46,2.93-.45,6.84,3.45,7,.62,0,1.24,0,1.85,0H81c8,0,15.93.15,23.89,0h.41c2.57,0,2.58-4,0-4H53.94c-.45,0-1.76-.24-2.15,0,0,0-.09,0-.13,0a1.12,1.12,0,0,1,.36.3,5,5,0,0,1-.08-1c0-.26,0-.51.07-.76,0-.08.08-.62,0-.33s0-.27.05-.35c0-.24.08-.48.13-.72a23.52,23.52,0,0,1,.66-2.63,22.27,22.27,0,0,1,1-2.61,21.17,21.17,0,0,1,9.44-10.1C69.42,86,77.22,85.3,84,86.38a26.07,26.07,0,0,1,15.68,8.13,23.5,23.5,0,0,1,3.7,5.72,19.62,19.62,0,0,1,1,2.71c.13.43.24.88.34,1.32,0,.2.08.4.11.6l.06.33c.06.4,0-.2,0,0s.08.77.09,1.16a5.93,5.93,0,0,0,0,1c.13.52-.32,0,.32,0C102.7,107.57,102.68,111.57,105.25,111.39Z"/></g></g></svg>